<svg xmlns="http://www.w3.org/2000/svg" width="90" height="100" fill="none" viewBox="0 0 90 100"><g opacity=".5"><rect width="1.463" height="1.478" fill="#404852"/><rect width="1.463" height="1.478" x="9.754" fill="#404852"/><rect width="1.463" height="1.478" x="19.508" fill="#404852"/><rect width="1.463" height="1.478" x="29.262" fill="#404852"/><rect width="1.463" height="1.478" x="39.016" fill="#404852"/><rect width="1.463" height="1.478" x="48.77" fill="#404852"/><rect width="1.463" height="1.478" x="58.524" fill="#404852"/><rect width="1.463" height="1.478" x="68.278" fill="#404852"/><rect width="1.463" height="1.478" x="78.031" fill="#404852"/><rect width="1.463" height="1.478" x="87.785" fill="#404852"/><rect width="1.463" height="1.478" y="9.852" fill="#404852"/><rect width="1.463" height="1.478" x="9.754" y="9.852" fill="#404852"/><rect width="1.463" height="1.478" x="19.508" y="9.852" fill="#404852"/><rect width="1.463" height="1.478" x="29.262" y="9.852" fill="#404852"/><rect width="1.463" height="1.478" x="39.016" y="9.852" fill="#404852"/><rect width="1.463" height="1.478" x="48.77" y="9.852" fill="#404852"/><rect width="1.463" height="1.478" x="58.524" y="9.852" fill="#404852"/><rect width="1.463" height="1.478" x="68.278" y="9.852" fill="#404852"/><rect width="1.463" height="1.478" x="78.031" y="9.852" fill="#404852"/><rect width="1.463" height="1.478" x="87.785" y="9.852" fill="#404852"/><rect width="1.463" height="1.478" y="19.704" fill="#404852"/><rect width="1.463" height="1.478" x="9.754" y="19.704" fill="#404852"/><rect width="1.463" height="1.478" x="19.508" y="19.704" fill="#404852"/><rect width="1.463" height="1.478" x="29.262" y="19.704" fill="#404852"/><rect width="1.463" height="1.478" x="39.016" y="19.704" fill="#404852"/><rect width="1.463" height="1.478" x="48.77" y="19.704" fill="#404852"/><rect width="1.463" height="1.478" x="58.524" y="19.704" fill="#404852"/><rect width="1.463" height="1.478" x="68.278" y="19.704" fill="#404852"/><rect width="1.463" height="1.478" x="78.031" y="19.704" fill="#404852"/><rect width="1.463" height="1.478" x="87.785" y="19.704" fill="#404852"/><rect width="1.463" height="1.478" y="29.557" fill="#404852"/><rect width="1.463" height="1.478" x="9.754" y="29.557" fill="#404852"/><rect width="1.463" height="1.478" x="19.508" y="29.557" fill="#404852"/><rect width="1.463" height="1.478" x="29.262" y="29.557" fill="#404852"/><rect width="1.463" height="1.478" x="39.016" y="29.557" fill="#404852"/><rect width="1.463" height="1.478" x="48.77" y="29.557" fill="#404852"/><rect width="1.463" height="1.478" x="58.524" y="29.557" fill="#404852"/><rect width="1.463" height="1.478" x="68.278" y="29.557" fill="#404852"/><rect width="1.463" height="1.478" x="78.031" y="29.557" fill="#404852"/><rect width="1.463" height="1.478" x="87.785" y="29.557" fill="#404852"/><rect width="1.463" height="1.478" y="39.409" fill="#404852"/><rect width="1.463" height="1.478" x="9.754" y="39.409" fill="#404852"/><rect width="1.463" height="1.478" x="19.508" y="39.409" fill="#404852"/><rect width="1.463" height="1.478" x="29.262" y="39.409" fill="#404852"/><rect width="1.463" height="1.478" x="39.016" y="39.409" fill="#404852"/><rect width="1.463" height="1.478" x="48.77" y="39.409" fill="#404852"/><rect width="1.463" height="1.478" x="58.524" y="39.409" fill="#404852"/><rect width="1.463" height="1.478" x="68.278" y="39.409" fill="#404852"/><rect width="1.463" height="1.478" x="78.031" y="39.409" fill="#404852"/><rect width="1.463" height="1.478" x="87.785" y="39.409" fill="#404852"/><rect width="1.463" height="1.478" y="49.261" fill="#404852"/><rect width="1.463" height="1.478" x="9.754" y="49.261" fill="#404852"/><rect width="1.463" height="1.478" x="19.508" y="49.261" fill="#404852"/><rect width="1.463" height="1.478" x="29.262" y="49.261" fill="#404852"/><rect width="1.463" height="1.478" x="39.016" y="49.261" fill="#404852"/><rect width="1.463" height="1.478" x="48.77" y="49.261" fill="#404852"/><rect width="1.463" height="1.478" x="58.524" y="49.261" fill="#404852"/><rect width="1.463" height="1.478" x="68.278" y="49.261" fill="#404852"/><rect width="1.463" height="1.478" x="78.031" y="49.261" fill="#404852"/><rect width="1.463" height="1.478" x="87.785" y="49.261" fill="#404852"/><rect width="1.463" height="1.478" y="59.113" fill="#404852"/><rect width="1.463" height="1.478" x="9.754" y="59.113" fill="#404852"/><rect width="1.463" height="1.478" x="19.508" y="59.113" fill="#404852"/><rect width="1.463" height="1.478" x="29.262" y="59.113" fill="#404852"/><rect width="1.463" height="1.478" x="39.016" y="59.113" fill="#404852"/><rect width="1.463" height="1.478" x="48.77" y="59.113" fill="#404852"/><rect width="1.463" height="1.478" x="58.524" y="59.113" fill="#404852"/><rect width="1.463" height="1.478" x="68.278" y="59.113" fill="#404852"/><rect width="1.463" height="1.478" x="78.031" y="59.113" fill="#404852"/><rect width="1.463" height="1.478" x="87.785" y="59.113" fill="#404852"/><rect width="1.463" height="1.478" y="68.966" fill="#404852"/><rect width="1.463" height="1.478" x="9.754" y="68.966" fill="#404852"/><rect width="1.463" height="1.478" x="19.508" y="68.966" fill="#404852"/><rect width="1.463" height="1.478" x="29.262" y="68.966" fill="#404852"/><rect width="1.463" height="1.478" x="39.016" y="68.966" fill="#404852"/><rect width="1.463" height="1.478" x="48.77" y="68.966" fill="#404852"/><rect width="1.463" height="1.478" x="58.524" y="68.966" fill="#404852"/><rect width="1.463" height="1.478" x="68.278" y="68.966" fill="#404852"/><rect width="1.463" height="1.478" x="78.031" y="68.966" fill="#404852"/><rect width="1.463" height="1.478" x="87.785" y="68.966" fill="#404852"/><rect width="1.463" height="1.478" y="78.818" fill="#404852"/><rect width="1.463" height="1.478" x="9.754" y="78.818" fill="#404852"/><rect width="1.463" height="1.478" x="19.508" y="78.818" fill="#404852"/><rect width="1.463" height="1.478" x="29.262" y="78.818" fill="#404852"/><rect width="1.463" height="1.478" x="39.016" y="78.818" fill="#404852"/><rect width="1.463" height="1.478" x="48.77" y="78.818" fill="#404852"/><rect width="1.463" height="1.478" x="58.524" y="78.818" fill="#404852"/><rect width="1.463" height="1.478" x="68.278" y="78.818" fill="#404852"/><rect width="1.463" height="1.478" x="78.031" y="78.818" fill="#404852"/><rect width="1.463" height="1.478" x="87.785" y="78.818" fill="#404852"/><rect width="1.463" height="1.478" y="88.67" fill="#404852"/><rect width="1.463" height="1.478" x="9.754" y="88.67" fill="#404852"/><rect width="1.463" height="1.478" x="19.508" y="88.67" fill="#404852"/><rect width="1.463" height="1.478" x="29.262" y="88.67" fill="#404852"/><rect width="1.463" height="1.478" x="39.016" y="88.67" fill="#404852"/><rect width="1.463" height="1.478" x="48.77" y="88.67" fill="#404852"/><rect width="1.463" height="1.478" x="58.524" y="88.67" fill="#404852"/><rect width="1.463" height="1.478" x="68.278" y="88.67" fill="#404852"/><rect width="1.463" height="1.478" x="78.031" y="88.67" fill="#404852"/><rect width="1.463" height="1.478" x="87.785" y="88.67" fill="#404852"/><rect width="1.463" height="1.478" y="98.522" fill="#404852"/><rect width="1.463" height="1.478" x="9.754" y="98.522" fill="#404852"/><rect width="1.463" height="1.478" x="19.508" y="98.522" fill="#404852"/><rect width="1.463" height="1.478" x="29.262" y="98.522" fill="#404852"/><rect width="1.463" height="1.478" x="39.016" y="98.522" fill="#404852"/><rect width="1.463" height="1.478" x="48.77" y="98.522" fill="#404852"/><rect width="1.463" height="1.478" x="58.524" y="98.522" fill="#404852"/><rect width="1.463" height="1.478" x="68.278" y="98.522" fill="#404852"/><rect width="1.463" height="1.478" x="78.031" y="98.522" fill="#404852"/><rect width="1.463" height="1.478" x="87.785" y="98.522" fill="#404852"/></g></svg>